<?xml version="1.0" encoding="UTF-8"?>
<svg version="1.1" xmlns="http://www.w3.org/2000/svg" width="2048" height="2048">
<path d="M0 0 C6.40774161 3.05515118 12.80873715 5.9452984 19.42382812 8.51831055 C67.22389543 27.46576984 97.49887499 73.42946747 117.11132812 118.76831055 C131.25379276 152.22594832 141.1158222 188.60429635 145.11132812 224.76831055 C145.24152344 225.91944336 145.37171875 227.07057617 145.50585938 228.2565918 C146.96962207 243.30407227 145.43011013 257.95507809 143.8203125 272.90917969 C135.2138087 353.52196829 168.20299687 444.15073015 208.11132812 512.76831055 C208.52189453 513.48567383 208.93246094 514.20303711 209.35546875 514.94213867 C226.63191469 545.06313122 247.12212047 573.48034744 267.50244141 601.55053711 C270.7554656 606.03467546 273.99528123 610.52837294 277.23657227 615.02099609 C279.93770422 618.76361634 282.64387111 622.50236671 285.36132812 626.2331543 C292.50422752 636.0523588 299.47262316 645.97424839 306.26708984 656.0378418 C307.56289493 657.95633321 308.8616624 659.87282546 310.16259766 661.7878418 C326.2691705 685.51850636 341.31466277 709.70139195 354.69726562 735.09155273 C355.99929226 737.5562316 357.31736769 740.01135468 358.64257812 742.46362305 C396.93455548 813.66445791 433.46377754 901.27493909 412.95751953 1037.90087891 C411.40100964 1042.87737262 409.77987478 1047.82836804 408.11132812 1052.76831055 C407.36464711 1055.00900035 406.61854547 1057.24988332 405.87304688 1059.4909668 C405.2859988 1061.2501453 404.69883172 1063.00928412 404.11132812 1064.76831055 C405.1395166 1065.30427856 405.1395166 1065.30427856 406.18847656 1065.85107422 C419.76874181 1073.09415604 425.61844788 1085.80720588 430.13085938 1099.9128418 C432.04644495 1106.26573354 433.40337054 1112.6127599 434.54882812 1119.14331055 C434.75564209 1120.2823584 434.96245605 1121.42140625 435.17553711 1122.5949707 C436.32932863 1129.03686446 437.39565455 1135.48935529 438.40039062 1141.95581055 C438.50744827 1142.63978912 438.61450592 1143.3237677 438.72480774 1144.0284729 C439.24252337 1147.34152941 439.74897297 1150.65513077 440.23608398 1153.97290039 C443.48563099 1175.15585865 451.81894246 1189.2735062 466.11132812 1204.76831055 C466.89765625 1205.62682617 467.68398437 1206.4853418 468.49414062 1207.36987305 C484.0996468 1223.66639794 505.79219721 1236.22413488 526.67382812 1244.45581055 C535.69520075 1248.07914873 543.31173405 1254.16617901 548.21289062 1262.68237305 C552.3709637 1272.74724151 551.27038945 1286.2598728 547.35742188 1296.19799805 C543.7094447 1303.7226657 538.53295829 1308.37116786 531.99023438 1313.49487305 C529.83528218 1315.19661277 527.77627245 1316.92686865 525.71679688 1318.73706055 C522.28020841 1321.69656528 518.68349803 1324.20998428 514.86132812 1326.64331055 C514.14662354 1327.10181396 513.43191895 1327.56031738 512.69555664 1328.03271484 C495.56687381 1338.90815391 477.87145699 1348.93056561 460.34179688 1359.1394043 C423.58386565 1380.17500431 423.58386565 1380.17500431 388.15722656 1403.3215332 C385.94155474 1404.88836748 383.71858209 1406.44442216 381.49414062 1407.9987793 C378.14448389 1410.33968883 374.79703618 1412.68370267 371.45117188 1415.0300293 C366.81712743 1418.27721156 362.17419254 1421.51143721 357.52783203 1424.7409668 C355.58288565 1426.09295363 353.6385497 1427.44581904 351.69482422 1428.79956055 C347.06284977 1432.02533026 342.42551716 1435.24240292 337.77148438 1438.4362793 C320.55788423 1450.28848032 305.20418269 1463.3328946 290.11132812 1477.76831055 C273.57306985 1493.50926987 254.01685771 1505.24325918 232.11132812 1511.76831055 C231.35899902 1511.99421875 230.60666992 1512.22012695 229.83154297 1512.45288086 C216.17078372 1516.27707104 202.12128668 1516.15636514 188.04882812 1516.20581055 C187.12337189 1516.21216522 186.19791565 1516.2185199 185.24441528 1516.22506714 C157.93381015 1516.3414188 128.23298813 1513.62036334 107.86132812 1493.54174805 C106.95382812 1492.62651367 106.04632812 1491.7112793 105.11132812 1490.76831055 C104.36882813 1490.05932617 103.62632812 1489.3503418 102.86132812 1488.61987305 C89.45640703 1474.95313709 82.01977932 1451.54948043 82.11132812 1432.76831055 C52.72170501 1427.87670789 52.72170501 1427.87670789 23.11132812 1424.76831055 C21.94746582 1424.68436035 20.78360352 1424.60041016 19.58447266 1424.51391602 C7.63764301 1423.69782333 -4.29175502 1423.52934414 -16.26367188 1423.51831055 C-17.90213577 1423.51530441 -17.90213577 1423.51530441 -19.57369995 1423.51223755 C-38.74220071 1423.50387113 -57.82058271 1424.30964028 -76.95863724 1425.31082916 C-111.6081861 1427.11210978 -146.27156101 1427.27280112 -180.96118164 1427.47705078 C-185.34977553 1427.50329375 -189.73836571 1427.53006791 -194.12695312 1427.55737305 C-195.18304213 1427.56382717 -196.23913113 1427.5702813 -197.32722282 1427.576931 C-220.20742672 1427.72359675 -243.05024887 1428.31383103 -265.88867188 1429.76831055 C-265.91445313 1430.50952148 -265.94023438 1431.25073242 -265.96679688 1432.0144043 C-267.19571697 1454.83321605 -274.96229384 1477.33405929 -289.88867188 1494.76831055 C-290.80712891 1495.98260742 -290.80712891 1495.98260742 -291.74414062 1497.22143555 C-306.94543832 1515.27470713 -332.17526862 1523.1335608 -354.83642578 1525.52954102 C-401.35605132 1529.16865426 -441.09974089 1513.60370913 -483.54931641 1496.87182617 C-532.98151351 1477.3913565 -581.2800986 1462.96932713 -633.28385353 1451.99778843 C-754.59382208 1426.40219342 -754.59382208 1426.40219342 -773.70507812 1397.22924805 C-777.05084004 1390.27271336 -778.44727357 1383.84683751 -778.38867188 1376.14331055 C-778.38295166 1375.24668701 -778.37723145 1374.35006348 -778.37133789 1373.42626953 C-777.82302368 1352.05678479 -770.76267568 1335.27402917 -759.45825195 1317.53198242 C-752.24877639 1306.14376624 -748.48599159 1295.53504674 -748.57617188 1282.01831055 C-748.58181152 1281.10855469 -748.58745117 1280.19879883 -748.59326172 1279.26147461 C-749.0325529 1253.99135788 -756.18752778 1229.42542907 -763.72900391 1205.48339844 C-773.32110502 1174.63112956 -773.32110502 1174.63112956 -766.88867188 1159.76831055 C-760.63380685 1148.50153445 -748.74510801 1143.36377205 -736.88867188 1139.76831055 C-724.56136499 1136.48065017 -712.04947352 1133.86822489 -699.57617188 1131.2019043 C-676.3814815 1126.21974738 -656.71268265 1121.04067753 -638.88867188 1104.76831055 C-638.03273438 1103.99616211 -637.17679688 1103.22401367 -636.29492188 1102.4284668 C-621.60603539 1088.47879375 -610.58292536 1070.47592829 -599.20507812 1053.84643555 C-589.41471388 1039.66688851 -577.8382605 1027.89660229 -563.88867188 1017.76831055 C-564.20320312 1016.94459961 -564.51773438 1016.12088867 -564.84179688 1015.2722168 C-574.04941698 984.45417487 -559.95748858 944.93390495 -550.88867188 915.76831055 C-550.50114746 914.52194824 -550.11362305 913.27558594 -549.71435547 911.99145508 C-538.52310197 876.30247131 -524.36309988 841.71937557 -508.78936768 807.73968506 C-507.44507121 804.79739113 -506.11996907 801.8464662 -504.79101562 798.8972168 C-497.03544192 781.8495878 -488.68084422 765.08674937 -480.3442955 748.31800079 C-479.40696492 746.43015397 -478.47244579 744.54094146 -477.53872681 742.65130615 C-469.28794287 725.96706753 -460.49516775 709.71571909 -450.88867188 693.76831055 C-450.3575177 692.88187866 -449.82636353 691.99544678 -449.27911377 691.08215332 C-439.37346018 674.56074351 -428.51185108 658.68283063 -417.63720703 642.7902832 C-415.91704411 640.27593502 -414.2021391 637.75823724 -412.49560547 635.23461914 C-404.66717868 623.66223807 -396.65812464 612.67941584 -387.27587891 602.32055664 C-384.48648489 599.1993023 -381.87536604 595.93275105 -379.24414062 592.6784668 C-377.48788643 590.50863366 -375.71988305 588.35171802 -373.93945312 586.2019043 C-348.78305865 555.72448352 -324.90744088 521.83518973 -315.88867188 482.76831055 C-315.54835938 481.38192383 -315.54835938 481.38192383 -315.20117188 479.9675293 C-311.54235927 462.41031048 -313.98968559 443.20291446 -315.49804688 425.49487305 C-315.6676343 423.41709005 -315.83624261 421.33922693 -316.00395203 419.2612915 C-316.35804235 414.88952061 -316.71698478 410.51819056 -317.08004761 406.14715576 C-318.02739401 394.72605692 -318.93659724 383.30188122 -319.84570312 371.87768555 C-319.93588778 370.74711102 -320.02607243 369.61653648 -320.11898994 368.45170212 C-321.70577561 348.52604784 -323.12025193 328.59549788 -324.32617188 308.64331055 C-324.40339478 307.38689758 -324.48061768 306.13048462 -324.56018066 304.83599854 C-326.11937602 279.28516263 -327.10350225 253.74377735 -327.07617188 228.14331055 C-327.07556763 227.07423462 -327.07496338 226.00515869 -327.07434082 224.90368652 C-326.98177967 163.97361725 -323.13164907 94.74530011 -280.88867188 46.76831055 C-280.0971875 45.84405273 -279.30570313 44.91979492 -278.49023438 43.9675293 C-272.80377686 37.48281513 -266.75587541 31.97541072 -259.88867188 26.76831055 C-258.84066406 25.96651367 -257.79265625 25.1647168 -256.71289062 24.33862305 C-183.3471648 -30.57552064 -81.84196487 -39.02220252 0 0 Z M-420.88867188 749.76831055 C-419.88867188 751.76831055 -419.88867188 751.76831055 -419.88867188 751.76831055 Z M-421.88867188 751.76831055 C-420.88867188 753.76831055 -420.88867188 753.76831055 -420.88867188 753.76831055 Z M-422.88867188 753.76831055 C-436.53222524 776.0323084 -448.52452683 798.7518087 -459.51757812 822.4206543 C-459.81396683 823.05840286 -460.11035553 823.69615143 -460.41572571 824.35322571 C-461.24802543 826.15458634 -462.06851356 827.9613896 -462.88867188 829.76831055 C-463.18933563 830.39762482 -463.48999939 831.02693909 -463.79977417 831.67532349 C-465.70747073 835.58733591 -465.70747073 835.58733591 -464.88867188 839.76831055 C-464.51282959 839.00877075 -464.51282959 839.00877075 -464.12939453 838.23388672 C-459.58639063 829.06649632 -455.00963693 819.92474877 -450.20117188 810.89331055 C-445.3959942 801.85875811 -440.83202288 792.70696106 -436.28262329 783.54193115 C-432.03704661 774.98938888 -427.70149203 766.51106633 -423.01367188 758.19018555 C-422.64242187 757.3909668 -422.27117187 756.59174805 -421.88867188 755.76831055 C-422.38367188 754.77831055 -422.38367188 754.77831055 -422.88867188 753.76831055 Z M-466.88867188 839.76831055 C-465.88867188 841.76831055 -465.88867188 841.76831055 -465.88867188 841.76831055 Z M-467.88867188 841.76831055 C-466.88867188 843.76831055 -466.88867188 843.76831055 -466.88867188 843.76831055 Z M-471.88867188 852.76831055 C-481.98454214 882.99465467 -488.25444007 913.0001476 -488.26367188 944.95581055 C-488.26557526 945.66474457 -488.26747864 946.37367859 -488.2694397 947.10409546 C-488.26677211 955.82290608 -487.64361277 964.21070176 -485.88867188 972.76831055 C-485.55867188 972.76831055 -485.22867187 972.76831055 -484.88867188 972.76831055 C-483.05964211 957.8609728 -481.23405303 942.9532167 -479.41255188 928.04495716 C-478.56670539 921.12270672 -477.71973631 914.20059709 -476.87011719 907.27880859 C-476.0504177 900.60074713 -475.23385646 893.92230884 -474.41921997 887.24362755 C-474.10767853 884.69378592 -473.79508009 882.1440732 -473.48141479 879.59449196 C-473.04276596 876.02752136 -472.60785428 872.46011373 -472.17382812 868.89257812 C-472.04291779 867.83521957 -471.91200745 866.77786102 -471.77713013 865.6884613 C-471.60043289 864.22670975 -471.60043289 864.22670975 -471.42016602 862.73542786 C-471.3169252 861.89198728 -471.21368439 861.0485467 -471.10731506 860.17954731 C-470.88208483 857.69566743 -470.85085503 855.26096828 -470.88867188 852.76831055 C-471.21867187 852.76831055 -471.54867188 852.76831055 -471.88867188 852.76831055 Z " fill="#EBEEF0" transform="translate(1156.888671875,276.231689453125)"/>
<path d="M0 0 C6.40774161 3.05515118 12.80873715 5.9452984 19.42382812 8.51831055 C67.22389543 27.46576984 97.49887499 73.42946747 117.11132812 118.76831055 C131.25379276 152.22594832 141.1158222 188.60429635 145.11132812 224.76831055 C145.24152344 225.91944336 145.37171875 227.07057617 145.50585938 228.2565918 C146.96962207 243.30407227 145.43011013 257.95507809 143.8203125 272.90917969 C135.2138087 353.52196829 168.20299687 444.15073015 208.11132812 512.76831055 C208.52189453 513.48567383 208.93246094 514.20303711 209.35546875 514.94213867 C226.63191469 545.06313122 247.12212047 573.48034744 267.50244141 601.55053711 C270.7554656 606.03467546 273.99528123 610.52837294 277.23657227 615.02099609 C279.93770422 618.76361634 282.64387111 622.50236671 285.36132812 626.2331543 C292.50422752 636.0523588 299.47262316 645.97424839 306.26708984 656.0378418 C307.56289493 657.95633321 308.8616624 659.87282546 310.16259766 661.7878418 C326.2691705 685.51850636 341.31466277 709.70139195 354.69726562 735.09155273 C355.99929226 737.5562316 357.31736769 740.01135468 358.64257812 742.46362305 C396.93455548 813.66445791 433.46377754 901.27493909 412.95751953 1037.90087891 C411.40098275 1042.87745861 409.77587529 1047.82697617 408.11132812 1052.76831055 C407.75087402 1053.87319824 407.39041992 1054.97808594 407.01904297 1056.11645508 C406.66148926 1057.20941895 406.30393555 1058.30238281 405.93554688 1059.4284668 C405.447677 1060.92518921 405.447677 1060.92518921 404.94995117 1062.45214844 C404.11132812 1064.76831055 404.11132812 1064.76831055 403.11132812 1065.76831055 C401.32424335 1065.98267582 399.53606455 1066.19028159 397.74438477 1066.36206055 C383.55851653 1067.73632133 370.80994797 1071.71345217 357.48632812 1076.64331055 C356.34687744 1077.05387695 355.20742676 1077.46444336 354.03344727 1077.88745117 C347.86106722 1080.24058763 343.78732893 1082.03484661 340.11132812 1087.76831055 C339.65709473 1088.47036621 339.20286133 1089.17242188 338.73486328 1089.89575195 C336.68737555 1093.10077779 334.71609453 1096.34999602 332.74804688 1099.60424805 C329.73513134 1104.48751895 326.53523662 1108.79155048 322.60424805 1112.97827148 C321.08406051 1114.80100494 320.20575307 1116.46094072 319.29882812 1118.64331055 C311.56703367 1135.24392805 290.0299405 1145.03542507 273.77929688 1151.0065918 C258.20800379 1155.45227577 238.85012712 1154.4100879 224.29101562 1147.4128418 C217.6808967 1143.73288007 212.3123295 1139.06981261 208.11132812 1132.76831055 C207.8684082 1130.73120117 207.8684082 1130.73120117 207.88085938 1128.42456055 C207.88279297 1127.59053711 207.88472656 1126.75651367 207.88671875 1125.8972168 C207.89896484 1125.02967773 207.91121094 1124.16213867 207.92382812 1123.26831055 C207.92447266 1122.40077148 207.92511719 1121.53323242 207.92578125 1120.6394043 C207.9706353 1114.19038903 207.9706353 1114.19038903 209.11132812 1110.76831055 C209.2047103 1108.8951739 209.24127656 1107.01876692 209.23632812 1105.14331055 C209.24019531 1103.66991211 209.24019531 1103.66991211 209.24414062 1102.16674805 C209.38138778 1099.81606043 209.38138778 1099.81606043 208.11132812 1098.76831055 C207.97709141 1097.12465652 207.87968368 1095.47795366 207.79882812 1093.83081055 C206.92835944 1083.9228288 203.27662129 1077.36196109 196.81835938 1069.8972168 C195.11132812 1067.76831055 195.11132812 1067.76831055 194.11132812 1064.76831055 C193.45132813 1064.10831055 192.79132812 1063.44831055 192.11132812 1062.76831055 C203.97900162 1050.44418808 219.97884915 1042.82896416 237.11132812 1041.76831055 C238.84258774 1041.81527951 240.57334018 1041.88617999 242.30273438 1041.97924805 C252.31416236 1042.61004065 252.31416236 1042.61004065 260.86523438 1038.31518555 C262.65727132 1035.03789043 263.97763142 1031.91686347 265.17871094 1028.39331055 C266.23712002 1025.41424917 267.46735684 1022.54227993 268.72851562 1019.64331055 C275.18084604 1004.66358379 280.51475478 989.4102996 285.11132812 973.76831055 C285.3557666 972.94492188 285.60020508 972.1215332 285.85205078 971.27319336 C294.11087918 943.05307693 297.26154622 914.44969043 297.29882812 885.14331055 C297.30000641 884.436008 297.30118469 883.72870544 297.30239868 882.99996948 C297.36073606 863.89816843 297.36073606 863.89816843 294.48632812 845.08081055 C294.31230469 844.33790771 294.13828125 843.59500488 293.95898438 842.82958984 C282.966567 797.98594838 253.22847218 758.70374911 216.11132812 731.76831055 C214.99753224 730.93696833 213.88425494 730.10493092 212.77148438 729.2722168 C201.88904147 721.22656311 190.32801894 713.62536327 178.11132812 707.76831055 C178.789375 708.31358398 179.46742188 708.85885742 180.16601562 709.4206543 C185.84412615 714.02133942 191.3655798 718.7199703 196.76757812 723.64331055 C198.91825523 725.59325779 201.09957784 727.49857184 203.29882812 729.39331055 C222.99160231 746.59483017 238.3498605 768.30824675 250.42382812 791.33081055 C251.01083496 792.44230469 251.5978418 793.55379883 252.20263672 794.69897461 C258.30065156 806.55361301 262.36894409 818.67631307 265.36132812 831.64331055 C265.6165625 832.70549805 265.87179687 833.76768555 266.13476562 834.86206055 C268.15313086 843.42417835 269.26483405 851.63079438 269.31445312 860.4128418 C269.32300323 861.62673836 269.32300323 861.62673836 269.33172607 862.86515808 C269.34112087 864.57366657 269.34768792 866.28219273 269.3515625 867.99072266 C269.36115945 870.53607258 269.39218977 873.08057504 269.42382812 875.62573242 C269.49838792 887.26961644 268.30016992 898.33942707 266.11132812 909.76831055 C265.97555359 910.48607666 265.83977905 911.20384277 265.69989014 911.94335938 C257.66976473 953.82450205 234.08898247 996.84914325 204.04882812 1027.14331055 C203.20795654 1027.99252075 203.20795654 1027.99252075 202.35009766 1028.85888672 C198.36899187 1032.76831055 198.36899187 1032.76831055 196.11132812 1032.76831055 C196.23507812 1031.51018555 196.35882812 1030.25206055 196.48632812 1028.95581055 C196.57599854 1028.02260986 196.66566895 1027.08940918 196.75805664 1026.12792969 C197.00716813 1023.75887428 197.29233398 1021.39347449 197.60327148 1019.03173828 C199.32441929 1005.5192956 199.38445257 992.08246758 199.31713867 978.47631836 C199.29869408 974.61524947 199.296631 970.75441928 199.296875 966.89331055 C199.29196462 964.41153765 199.28613841 961.92976637 199.27929688 959.44799805 C199.27762764 957.73687332 199.27762764 957.73687332 199.27592468 955.99118042 C199.24356481 950.51738164 199.04075902 945.17346687 198.35264587 939.74221802 C197.99916104 936.85081714 197.85932626 933.95811168 197.71679688 931.04956055 C193.62308859 853.94805963 175.66916118 785.72662109 140.59667969 716.83789062 C136.15042975 708.01482284 131.85616159 699.16549595 127.89648438 690.11206055 C127.42435516 689.03506897 126.95222595 687.95807739 126.46578979 686.84844971 C121.36486015 675.1494088 116.52829457 663.34652567 111.73632812 651.51831055 C110.78564595 649.17822208 109.83496232 646.8381342 108.88427734 644.49804688 C93.61383128 606.85844277 78.73810384 569.0583079 64.05023193 531.18786621 C63.10638951 528.75558374 62.16102164 526.32389879 61.21533203 523.89233398 C53.22455905 503.33732484 45.45125679 482.71461148 37.94506836 461.97729492 C37.64304001 461.14464111 37.34101166 460.3119873 37.02983093 459.45410156 C36.46976173 457.9090506 35.91143655 456.36336572 35.3553009 454.81689453 C34.14966473 451.49065644 32.89401711 448.21586533 31.47143555 444.97583008 C27.9243171 436.61071751 29.57526554 429.09162173 31.04882812 420.39331055 C34.34609804 402.82105367 34.34609804 402.82105367 28.11132812 386.76831055 C19.97094727 377.4317921 8.45045655 373.03302699 -2.88867188 368.76831055 C-2.08429687 367.86081055 -1.27992188 366.95331055 -0.45117188 366.01831055 C0.74212471 364.60652304 1.92887908 363.18919582 3.11132812 361.76831055 C4.14386719 360.5462793 4.14386719 360.5462793 5.19726562 359.29956055 C10.04205676 353.24782144 13.66660447 347.1294617 16.98632812 340.14331055 C17.35540283 339.36826172 17.72447754 338.59321289 18.10473633 337.79467773 C31.69611597 308.14189546 31.695914 272.71819899 21.05029297 242.23754883 C13.13930244 221.43365955 -0.67090438 203.78267271 -21.08007812 194.43237305 C-22.34779464 193.87355049 -23.61714255 193.31840236 -24.88867188 192.76831055 C-25.76394531 192.38416992 -26.63921875 192.0000293 -27.54101562 191.60424805 C-40.7096464 186.78700534 -55.36682186 189.48868123 -67.74804688 195.0534668 C-89.89512769 206.28341314 -102.13663415 226.57163686 -109.86132812 249.3815918 C-116.8378084 272.38010281 -117.46969201 298.29035434 -110.55273438 321.41674805 C-109.67498215 324.52502356 -109.24488319 327.56240872 -108.88867188 330.76831055 C-113.00806206 330.16323691 -116.80163756 329.22104033 -120.76367188 327.95581055 C-141.19282875 322.06651823 -162.92951229 319.08282976 -183.88867188 323.76831055 C-183.39403033 320.28353861 -182.89375493 316.801035 -182.35351562 313.32299805 C-178.16821922 284.11892977 -181.16275918 254.14655342 -197.67773438 229.04956055 C-199.32561376 226.85238803 -201.04766436 224.80525678 -202.88867188 222.76831055 C-203.48035156 222.07350586 -204.07203125 221.37870117 -204.68164062 220.6628418 C-211.53470449 213.13153656 -221.72086932 207.55962123 -231.93164062 206.43237305 C-246.04751233 206.2570206 -256.19247662 211.48280899 -266.51367188 220.89331055 C-285.74412598 241.25231243 -290.70023458 270.94417061 -290.02050781 297.75561523 C-288.88213207 323.7696091 -279.98742286 348.60120595 -260.88867188 366.76831055 C-262.22416424 370.77478763 -264.88244255 372.32419878 -268.13867188 374.76831055 C-269.41870773 375.7534863 -270.69732022 376.74051378 -271.97460938 377.72924805 C-272.62655273 378.23294922 -273.27849609 378.73665039 -273.95019531 379.25561523 C-293.59209506 394.46288587 -293.59209506 394.46288587 -302.88867188 416.76831055 C-304.17944892 430.36058396 -299.94073006 442.83652322 -291.88867188 453.76831055 C-285.05573911 461.77268042 -285.05573911 461.77268042 -276.69897461 467.98095703 C-274.23912937 469.39660759 -272.63246542 470.5157171 -270.88867188 472.76831055 C-270.00584964 477.59538591 -270.41102503 482.21315314 -270.82617188 487.08081055 C-270.90158203 488.36149414 -270.97699219 489.64217773 -271.0546875 490.96166992 C-271.37564553 496.11556629 -271.80173881 501.24460316 -272.43164062 506.36987305 C-272.98436568 511.02175005 -273.06828949 515.66637645 -273.17895508 520.34667969 C-273.45862257 531.84850912 -274.27887623 542.54618926 -276.88867188 553.76831055 C-277.13890955 555.08238933 -277.38352769 556.39754839 -277.62304688 557.71362305 C-282.16345887 581.63486774 -292.00776761 604.63679882 -301.88867188 626.76831055 C-302.38206055 627.87996582 -302.87544922 628.99162109 -303.38378906 630.13696289 C-320.74715531 669.04088862 -341.42851014 707.00533991 -368.13720703 740.32592773 C-398.79837255 778.70244609 -418.005566 829.75792785 -430.88867188 876.76831055 C-431.15437988 877.7305957 -431.42008789 878.69288086 -431.69384766 879.68432617 C-440.06716123 910.45354499 -445.23118603 942.00870945 -447.88867188 973.76831055 C-458.86003328 963.44963636 -459.67935582 944.78990455 -460.12695312 930.65893555 C-460.54117776 905.8035829 -457.28453788 881.62498165 -451.52539062 857.47583008 C-450.87813279 854.72349518 -450.26903932 851.96509192 -449.66992188 849.2019043 C-443.16798273 819.3657808 -434.05456993 789.61063912 -423.17431641 761.07519531 C-422.71774658 759.87141235 -422.71774658 759.87141235 -422.25195312 758.64331055 C-421.85423706 757.61850586 -421.85423706 757.61850586 -421.44848633 756.57299805 C-420.74053526 754.60567908 -420.74053526 754.60567908 -420.88867188 751.76831055 C-444.19719996 790.58937898 -465.58627651 830.95321339 -477.88867188 874.76831055 C-478.10861816 875.54287598 -478.32856445 876.31744141 -478.55517578 877.11547852 C-488.41766824 912.66531378 -495.54524365 965.48279815 -477.88867188 999.76831055 C-476.10984527 1002.40277527 -474.25036505 1004.81292141 -472.14648438 1007.1940918 C-470.27199309 1009.33127131 -468.59896475 1011.48631219 -466.90161133 1013.76074219 C-462.50608135 1019.42536151 -457.50622722 1024.42172432 -452.42382812 1029.46362305 C-451.42129991 1030.464955 -450.41914566 1031.46666149 -449.41734314 1032.46871948 C-447.33022214 1034.5542881 -445.23982458 1036.63649286 -443.14672852 1038.71606445 C-440.48465141 1041.36114287 -437.82921409 1044.01276576 -435.17600346 1046.6667347 C-433.11119192 1048.73127232 -431.04376938 1050.79317875 -428.97549248 1052.85424423 C-427.99626061 1053.83032927 -427.01760217 1054.80698998 -426.03956795 1055.78427505 C-420.49077157 1061.32416587 -414.87097721 1066.69815101 -408.88867188 1071.76831055 C-408.31283859 1072.26154312 -407.73700531 1072.7547757 -407.14372253 1073.26295471 C-405.62622396 1074.56244283 -404.10239166 1075.85407992 -402.57617188 1077.14331055 C-402.01986084 1077.61389893 -401.4635498 1078.0844873 -400.89038086 1078.56933594 C-397.43787624 1081.48243285 -393.95689582 1084.3567635 -390.45117188 1087.20581055 C-386.25176362 1090.62506748 -382.11988199 1094.11342049 -378.01367188 1097.64331055 C-377.42207275 1098.15168457 -376.83047363 1098.66005859 -376.22094727 1099.18383789 C-375.02709842 1100.21010904 -373.83333192 1101.23647597 -372.63964844 1102.26293945 C-364.99021957 1108.83940047 -357.29047853 1115.30445795 -349.33007812 1121.50292969 C-344.80136633 1125.03350442 -340.33650242 1128.63651235 -335.88867188 1132.26831055 C-328.62550696 1138.19322578 -321.27635999 1143.9998703 -313.88867188 1149.76831055 C-280.94148626 1175.51476064 -280.94148626 1175.51476064 -265.88867188 1189.76831055 C-265.25316406 1190.36514648 -264.61765625 1190.96198242 -263.96289062 1191.5769043 C-255.2569576 1200.55308801 -249.67505002 1214.48127976 -249.51367188 1226.95581055 C-249.71412453 1238.47515665 -253.50969291 1249.68155143 -261.76367188 1257.89331055 C-266.28007186 1261.544233 -271.78481705 1263.37311682 -277.16992188 1265.3737793 C-282.00699227 1267.18768069 -286.7018237 1269.21727389 -291.38867188 1271.39331055 C-294.93971703 1272.788364 -298.10552195 1273.38227484 -301.88867188 1273.76831055 C-288.3758836 1289.07002588 -274.24293655 1301.14274973 -256.88867188 1311.76831055 C-255.83679688 1312.42444336 -254.78492188 1313.08057617 -253.70117188 1313.7565918 C-225.24338794 1330.82442134 -192.07163866 1340.5742501 -159.42138672 1345.39379883 C-157.85486091 1345.62544049 -156.28968 1345.86667673 -154.72705078 1346.12329102 C-129.31610559 1350.28526865 -101.98472206 1348.95278822 -76.88867188 1343.76831055 C-75.83599121 1343.55932129 -74.78331055 1343.35033203 -73.69873047 1343.13500977 C-13.84327234 1331.07721037 49.46137035 1301.64614798 96.32617188 1262.09643555 C98.11132812 1260.76831055 98.11132812 1260.76831055 100.11132812 1260.76831055 C98.8772833 1272.22471102 97.2637713 1283.57745481 95.36825562 1294.94239616 C94.91000327 1297.69107832 94.45697308 1300.44058076 94.00512695 1303.19032288 C92.88297875 1310.01344705 91.75317174 1316.83529661 90.62194824 1323.65692139 C89.66160847 1329.44885806 88.70510723 1335.2414027 87.75375366 1341.03482246 C87.31324462 1343.70816411 86.86731759 1346.38056246 86.42114258 1349.05296326 C83.91186556 1364.22330834 81.76047072 1379.27250176 81.91601562 1394.68237305 C81.91884552 1395.78890228 81.92167542 1396.89543152 81.92459106 1398.03549194 C81.93557542 1401.48821962 81.96063447 1404.94066447 81.98632812 1408.39331055 C81.99638617 1410.76830674 82.00550698 1413.14330709 82.01367188 1415.51831055 C82.03544263 1421.26840319 82.06869276 1427.01833667 82.11132812 1432.76831055 C80.49629395 1432.51138428 80.49629395 1432.51138428 78.84863281 1432.24926758 C51.08354678 1427.67049514 51.08354678 1427.67049514 23.11132812 1424.76831055 C21.94746582 1424.68436035 20.78360352 1424.60041016 19.58447266 1424.51391602 C7.63764301 1423.69782333 -4.29175502 1423.52934414 -16.26367188 1423.51831055 C-17.90213577 1423.51530441 -17.90213577 1423.51530441 -19.57369995 1423.51223755 C-38.74220071 1423.50387113 -57.82058271 1424.30964028 -76.95863724 1425.31082916 C-111.6081861 1427.11210978 -146.27156101 1427.27280112 -180.96118164 1427.47705078 C-185.34977553 1427.50329375 -189.73836571 1427.53006791 -194.12695312 1427.55737305 C-195.18304213 1427.56382717 -196.23913113 1427.5702813 -197.32722282 1427.576931 C-220.20742672 1427.72359675 -243.05024887 1428.31383103 -265.88867188 1429.76831055 C-265.91445313 1430.50952148 -265.94023438 1431.25073242 -265.96679688 1432.0144043 C-267.19571697 1454.83321605 -274.96229384 1477.33405929 -289.88867188 1494.76831055 C-290.80712891 1495.98260742 -290.80712891 1495.98260742 -291.74414062 1497.22143555 C-306.94543832 1515.27470713 -332.17526862 1523.1335608 -354.83642578 1525.52954102 C-401.35605132 1529.16865426 -441.09974089 1513.60370913 -483.54931641 1496.87182617 C-532.98151351 1477.3913565 -581.2800986 1462.96932713 -633.28385353 1451.99778843 C-754.59382208 1426.40219342 -754.59382208 1426.40219342 -773.70507812 1397.22924805 C-777.05084004 1390.27271336 -778.44727357 1383.84683751 -778.38867188 1376.14331055 C-778.38295166 1375.24668701 -778.37723145 1374.35006348 -778.37133789 1373.42626953 C-777.82302368 1352.05678479 -770.76267568 1335.27402917 -759.45825195 1317.53198242 C-752.24877639 1306.14376624 -748.48599159 1295.53504674 -748.57617188 1282.01831055 C-748.58181152 1281.10855469 -748.58745117 1280.19879883 -748.59326172 1279.26147461 C-749.0325529 1253.99135788 -756.18752778 1229.42542907 -763.72900391 1205.48339844 C-773.32110502 1174.63112956 -773.32110502 1174.63112956 -766.88867188 1159.76831055 C-760.63380685 1148.50153445 -748.74510801 1143.36377205 -736.88867188 1139.76831055 C-724.56136499 1136.48065017 -712.04947352 1133.86822489 -699.57617188 1131.2019043 C-676.3814815 1126.21974738 -656.71268265 1121.04067753 -638.88867188 1104.76831055 C-638.03273438 1103.99616211 -637.17679688 1103.22401367 -636.29492188 1102.4284668 C-621.60603539 1088.47879375 -610.58292536 1070.47592829 -599.20507812 1053.84643555 C-589.41471388 1039.66688851 -577.8382605 1027.89660229 -563.88867188 1017.76831055 C-564.20320312 1016.94459961 -564.51773438 1016.12088867 -564.84179688 1015.2722168 C-574.04941698 984.45417487 -559.95748858 944.93390495 -550.88867188 915.76831055 C-550.50114746 914.52194824 -550.11362305 913.27558594 -549.71435547 911.99145508 C-538.52310197 876.30247131 -524.36309988 841.71937557 -508.78936768 807.73968506 C-507.44507121 804.79739113 -506.11996907 801.8464662 -504.79101562 798.8972168 C-497.03544192 781.8495878 -488.68084422 765.08674937 -480.3442955 748.31800079 C-479.40696492 746.43015397 -478.47244579 744.54094146 -477.53872681 742.65130615 C-469.28794287 725.96706753 -460.49516775 709.71571909 -450.88867188 693.76831055 C-450.3575177 692.88187866 -449.82636353 691.99544678 -449.27911377 691.08215332 C-439.37346018 674.56074351 -428.51185108 658.68283063 -417.63720703 642.7902832 C-415.91704411 640.27593502 -414.2021391 637.75823724 -412.49560547 635.23461914 C-404.66717868 623.66223807 -396.65812464 612.67941584 -387.27587891 602.32055664 C-384.48648489 599.1993023 -381.87536604 595.93275105 -379.24414062 592.6784668 C-377.48788643 590.50863366 -375.71988305 588.35171802 -373.93945312 586.2019043 C-348.78305865 555.72448352 -324.90744088 521.83518973 -315.88867188 482.76831055 C-315.54835938 481.38192383 -315.54835938 481.38192383 -315.20117188 479.9675293 C-311.54235927 462.41031048 -313.98968559 443.20291446 -315.49804688 425.49487305 C-315.6676343 423.41709005 -315.83624261 421.33922693 -316.00395203 419.2612915 C-316.35804235 414.88952061 -316.71698478 410.51819056 -317.08004761 406.14715576 C-318.02739401 394.72605692 -318.93659724 383.30188122 -319.84570312 371.87768555 C-319.93588778 370.74711102 -320.02607243 369.61653648 -320.11898994 368.45170212 C-321.70577561 348.52604784 -323.12025193 328.59549788 -324.32617188 308.64331055 C-324.40339478 307.38689758 -324.48061768 306.13048462 -324.56018066 304.83599854 C-326.11937602 279.28516263 -327.10350225 253.74377735 -327.07617188 228.14331055 C-327.07556763 227.07423462 -327.07496338 226.00515869 -327.07434082 224.90368652 C-326.98177967 163.97361725 -323.13164907 94.74530011 -280.88867188 46.76831055 C-280.0971875 45.84405273 -279.30570313 44.91979492 -278.49023438 43.9675293 C-272.80377686 37.48281513 -266.75587541 31.97541072 -259.88867188 26.76831055 C-258.84066406 25.96651367 -257.79265625 25.1647168 -256.71289062 24.33862305 C-183.3471648 -30.57552064 -81.84196487 -39.02220252 0 0 Z " fill="#263238" transform="translate(1156.888671875,276.231689453125)"/>
<path d="M0 0 C15.47121008 10.6606307 29.05119427 24.89412928 40.5 39.72265625 C41.41108146 40.84747323 42.325365 41.96970127 43.2421875 43.08984375 C61.4213944 65.35847342 77.12935782 89.50524288 92.45068359 113.79370117 C96.39011254 120.0257112 100.44670336 126.16847543 104.5625 132.28515625 C114.91210273 147.71724263 124.46974753 163.58923346 133.82913208 179.63525391 C144.51418609 197.95231733 155.54753237 216.05818522 166.75878906 234.05786133 C169.53122577 238.51442795 172.26711735 242.98915688 174.95703125 247.49609375 C182.25580822 259.7024082 189.97123424 271.34508608 198.5 282.72265625 C225.59742169 318.97429725 225.59742169 318.97429725 234.5 338.72265625 C234.90476562 339.56054688 235.30953125 340.3984375 235.7265625 341.26171875 C243.80402957 359.20479445 242.99758029 378.50522903 242.5 397.72265625 C242.46691183 399.83462709 242.43432317 401.94660583 242.40234375 404.05859375 C241.81036122 431.0991895 235.42814297 457.78229493 217.5 478.72265625 C216.88769531 479.5321875 216.27539062 480.34171875 215.64453125 481.17578125 C200.44323355 499.22905283 175.21340326 507.08790651 152.55224609 509.48388672 C106.03262055 513.12299996 66.28893099 497.55805484 23.83935547 480.82617188 C-25.59284164 461.3457022 -73.89142672 446.92367283 -125.89518166 435.95213413 C-247.2051502 410.35653912 -247.2051502 410.35653912 -266.31640625 381.18359375 C-269.66216817 374.22705907 -271.0586017 367.80118321 -271 360.09765625 C-270.99427979 359.20103271 -270.98855957 358.30440918 -270.98266602 357.38061523 C-270.43435181 336.0111305 -263.37400381 319.22837487 -252.06958008 301.48632812 C-244.86010451 290.09811195 -241.09731972 279.48939244 -241.1875 265.97265625 C-241.19313965 265.06290039 -241.1987793 264.15314453 -241.20458984 263.21582031 C-241.64388103 237.94570358 -248.7988559 213.37977477 -256.34033203 189.43774414 C-265.93243315 158.58547527 -265.93243315 158.58547527 -259.5 143.72265625 C-253.24513498 132.45588015 -241.35643614 127.31811776 -229.5 123.72265625 C-217.17269312 120.43499587 -204.66080165 117.82257059 -192.1875 115.15625 C-168.99280963 110.17409309 -149.32401078 104.99502323 -131.5 88.72265625 C-130.6440625 87.95050781 -129.788125 87.17835937 -128.90625 86.3828125 C-114.21736351 72.43313946 -103.19425349 54.430274 -91.81640625 37.80078125 C-84.04561953 26.54622186 -75.14575758 16.37096241 -64.5 7.72265625 C-63.86449219 7.15289063 -63.22898437 6.583125 -62.57421875 5.99609375 C-44.42522035 -9.52112899 -20.33091856 -12.92919352 0 0 Z " fill="#FEC007" transform="translate(649.5,1292.27734375)"/>
<path d="M0 0 C1.31713989 -0.0153479 1.31713989 -0.0153479 2.66088867 -0.03100586 C16.50503552 0.15344518 26.85951862 5.92707848 37.23828125 14.66796875 C39.36378023 16.48106299 39.36378023 16.48106299 41.60546875 17.36328125 C44.24790615 18.8615705 45.05154575 20.79869372 46.5 23.4375 C47.6566406 25.04891066 48.82353738 26.6530036 50 28.25 C55.09050511 35.5313554 56.77720328 41.35480436 57.2890625 50.21484375 C57.25914935 52.40902842 57.25914935 52.40902842 58.5 53.4375 C58.59908783 55.22690972 58.62970379 57.02035508 58.625 58.8125 C58.62757813 59.78960938 58.63015625 60.76671875 58.6328125 61.7734375 C58.5 64.4375 58.5 64.4375 57.5 67.4375 C56.5269873 74.74806879 55.78661563 82.98595943 59.12109375 89.703125 C66.80322416 98.63137639 77.90101314 104.01011692 89.5 105.4375 C93.39673853 105.65651535 97.28501966 105.72835391 101.1875 105.75 C102.16170898 105.75563965 103.13591797 105.7612793 104.13964844 105.76708984 C120.13543302 105.6066425 135.63415788 99.85250384 148.5 90.4375 C149.36238281 89.8084375 150.22476562 89.179375 151.11328125 88.53125 C158.76467512 82.67950112 165.45456019 76.40996948 169.38696289 67.50878906 C170.5990492 65.25317594 171.98429357 63.66560998 173.734375 61.80078125 C177.65029095 57.42381167 180.65960082 52.70381152 183.6875 47.6875 C184.69674449 46.02295191 185.71091899 44.36138103 186.73046875 42.703125 C187.16770264 41.97899414 187.60493652 41.25486328 188.05541992 40.50878906 C191.28249441 35.88169764 194.37605067 33.7891803 199.63671875 31.78125 C200.84577881 31.31759033 202.05483887 30.85393066 203.30053711 30.3762207 C204.59565691 29.89520555 205.89132279 29.41565845 207.1875 28.9375 C207.84138702 28.69349457 208.49527405 28.44948914 209.16897583 28.1980896 C243.93599501 15.26051972 243.93599501 15.26051972 256.7109375 20.83984375 C269.69555046 28.27780832 275.4181874 42.63180833 279.28004456 56.4982605 C282.62495076 68.9680469 284.63370604 81.55828954 286.5625 94.3125 C290.54545638 120.62331352 296.17181307 138.56736236 314.5 158.4375 C315.28632812 159.29601563 316.07265625 160.15453125 316.8828125 161.0390625 C332.48831867 177.3355874 354.18086908 189.89332434 375.0625 198.125 C384.08387263 201.74833819 391.70040593 207.83536846 396.6015625 216.3515625 C400.75963557 226.41643097 399.65906132 239.92906225 395.74609375 249.8671875 C392.09811658 257.39185515 386.92163016 262.04035731 380.37890625 267.1640625 C378.22395406 268.86580222 376.16494432 270.5960581 374.10546875 272.40625 C370.66888028 275.36575474 367.07216991 277.87917374 363.25 280.3125 C362.53529541 280.77100342 361.82059082 281.22950684 361.08422852 281.7019043 C343.95554568 292.57734336 326.26012887 302.59975506 308.73046875 312.80859375 C271.97253753 333.84419377 271.97253753 333.84419377 236.54589844 356.99072266 C234.33022662 358.55755693 232.10725397 360.11361161 229.8828125 361.66796875 C226.53315577 364.00887828 223.18570806 366.35289212 219.83984375 368.69921875 C215.2057993 371.94640102 210.56286442 375.18062667 205.91650391 378.41015625 C203.97155753 379.76214308 202.02722158 381.11500849 200.08349609 382.46875 C195.45152165 385.69451971 190.81418903 388.91159237 186.16015625 392.10546875 C168.94655611 403.95766978 153.59285456 417.00208405 138.5 431.4375 C121.96174172 447.17845933 102.40552958 458.91244864 80.5 465.4375 C79.7476709 465.6634082 78.9953418 465.88931641 78.22021484 466.12207031 C64.55945559 469.9462605 50.50995855 469.82555459 36.4375 469.875 C35.51204376 469.88135468 34.58658752 469.88770935 33.63308716 469.89425659 C6.32248202 470.01060825 -23.37833999 467.28955279 -43.75 447.2109375 C-44.6575 446.29570313 -45.565 445.38046875 -46.5 444.4375 C-47.61375 443.37402344 -47.61375 443.37402344 -48.75 442.2890625 C-68.95768517 421.68669598 -70.68746414 389.26835929 -70.74023438 362.25219727 C-70.74983314 359.3012962 -70.78089115 356.35112599 -70.8125 353.40039062 C-70.95889901 328.30825389 -66.56840813 303.82778904 -62.36968994 279.17498779 C-61.75137786 275.53728745 -61.13964222 271.8984821 -60.52734375 268.25976562 C-57.01713804 247.41997155 -57.01713804 247.41997155 -55.56079102 238.99121094 C-53.88040087 229.21095057 -52.5514655 219.4217657 -51.4375 209.5625 C-51.26600737 208.06809936 -51.09437468 206.5737148 -50.92260742 205.0793457 C-50.44056811 200.86625498 -49.96939319 196.65201794 -49.5 192.4375 C-49.38237305 191.39609863 -49.26474609 190.35469727 -49.14355469 189.28173828 C-48.99128418 187.92218018 -48.99128418 187.92218018 -48.8359375 186.53515625 C-48.75263184 185.79273682 -48.66932617 185.05031738 -48.58349609 184.28540039 C-46.82617373 167.03356094 -46.36481249 149.75206809 -46.30076981 132.4200573 C-46.28865309 129.42618361 -46.2691369 126.43243437 -46.24765015 123.43861389 C-46.18706474 114.94373824 -46.13209245 106.44888757 -46.09863281 97.95385742 C-46.07745149 92.70992137 -46.04199264 87.46623554 -45.99787521 82.22244453 C-45.9839301 80.2545424 -45.97504277 78.28659629 -45.97182083 76.31864738 C-45.95369705 66.32027492 -45.61032712 56.52169127 -44.17333984 46.61547852 C-44.05955805 45.81764167 -43.94577625 45.01980482 -43.82854652 44.1977911 C-41.5167002 29.83775295 -34.08645173 15.06392751 -22.6171875 5.91015625 C-15.32440197 0.83749915 -8.73093835 0.07864334 0 0 Z " fill="#FEC007" transform="translate(1308.5,1322.5625)"/>
<path d="M0 0 C1.44632813 0.61681641 1.44632813 0.61681641 2.921875 1.24609375 C22.7666834 10.91040073 35.44696773 31.07493635 42.79345703 51.17041016 C52.83024245 80.42179203 52.52646606 115.93047407 39.07739258 144.06665039 C38.07643296 146.05856236 37.04412847 148.03045267 36 150 C35.44441406 151.1034375 34.88882812 152.206875 34.31640625 153.34375 C30.02919869 161.32186287 24.29294659 167.58187726 18 174 C18.67804688 174.30292969 19.35609375 174.60585938 20.0546875 174.91796875 C22.0153622 175.80054392 23.97213537 176.69181703 25.92578125 177.58984375 C27.81073204 178.4544781 29.70261039 179.30442939 31.60546875 180.12890625 C41.12475632 184.47236497 48.46727875 190.78602431 53.2578125 200.15234375 C57.58277946 216.74655908 51.71932714 241.30517109 43.359375 255.85546875 C32.74257016 272.02602234 13.63606193 280.85971345 -3.71679688 287.91503906 C-18.07991634 293.82142273 -31.42379614 301.73532417 -44.74414062 309.65966797 C-72.25666906 326.00639753 -98.90101295 341.52828545 -131.6875 341.1875 C-133.02359905 341.17860794 -134.35969934 341.16990199 -135.69580078 341.16137695 C-168.21809362 340.86412376 -189.41317728 335.65105504 -213.16552734 312.75341797 C-216.00535129 310.03906934 -218.91052585 307.39751321 -221.8125 304.75 C-225.60714884 301.28593697 -229.22021482 297.73811989 -232.75 294 C-237.56336412 289.10040297 -242.96046002 285.40191878 -248.6003418 281.5378418 C-255.32563795 276.88542623 -261.20696335 271.775482 -267 266 C-267.74765625 265.27554687 -268.4953125 264.55109375 -269.265625 263.8046875 C-278.30488225 254.45492142 -283.88440615 242.09953666 -284.3125 229.125 C-284.01827851 215.34851148 -277.68492228 204.95482363 -267.91015625 195.578125 C-263.00328201 191.23109547 -257.85342924 187.2194011 -252.63916016 183.25 C-250.28664874 181.45600857 -247.95651429 179.63365132 -245.625 177.8125 C-244.41696018 176.87462181 -243.20876045 175.93694924 -242 175 C-243.32122536 172.01762237 -244.68405123 170.20258764 -247.125 168.0625 C-265.67594966 149.93579243 -271.04831937 120.66282873 -271.375 95.8125 C-271.35646032 70.74891313 -263.88885858 43.69354608 -245.7890625 25.59375 C-236.10326997 16.58623426 -225.82308569 11.08584187 -212.33984375 11.55078125 C-203.06741921 12.79794946 -194.90975216 16.77693128 -188 23 C-187.28457031 23.61230469 -186.56914063 24.22460938 -185.83203125 24.85546875 C-168.64982631 40.61814557 -160.8850092 65.80766145 -159.88989258 88.51220703 C-159.83103356 91.05084354 -159.81010668 93.58569132 -159.8125 96.125 C-159.81330566 97.03008301 -159.81411133 97.93516602 -159.81494141 98.86767578 C-159.91033247 109.48975136 -160.89726017 119.80528342 -164 130 C-163.35417969 129.7834375 -162.70835937 129.566875 -162.04296875 129.34375 C-138.24395571 122.31148349 -111.8018907 129.35426217 -89 137 C-89.26554687 136.17757812 -89.53109375 135.35515625 -89.8046875 134.5078125 C-97.03186191 111.66572112 -98.61875366 87.39396968 -93 64 C-92.80664062 63.00613281 -92.61328125 62.01226563 -92.4140625 60.98828125 C-87.80916166 39.07014934 -74.38845116 17.58505592 -55.96484375 4.8203125 C-37.80910087 -6.32669169 -19.56503094 -8.37544133 0 0 Z " fill="#FEC007" transform="translate(1137,470)"/>
<path d="M0 0 C0.96421875 0.41121094 1.9284375 0.82242187 2.921875 1.24609375 C22.7666834 10.91040073 35.44696773 31.07493635 42.79345703 51.17041016 C52.83024245 80.42179203 52.52646606 115.93047407 39.07739258 144.06665039 C38.07643296 146.05856236 37.04412847 148.03045267 36 150 C35.44441406 151.1034375 34.88882812 152.206875 34.31640625 153.34375 C30.35328347 160.71876985 23.35091334 172.21636222 15 175 C12.63671875 174.3984375 12.63671875 174.3984375 9.6875 173.375 C-0.03181785 170.2162217 -10.02371349 168.17605818 -20 166 C-18.6932834 163.3865668 -17.62316568 163.30031179 -14.9375 162.25 C-2.60009253 156.91226269 4.88708086 147.23717045 10 135 C12.13984827 129.1243333 13.65775628 123.26104679 14 117 C14.06445312 115.84757813 14.12890625 114.69515625 14.1953125 113.5078125 C14.76166473 98.35789042 11.48304258 84.72456387 3 72 C1.67135321 70.66199654 0.33919405 69.32744674 -1 68 C-1 67.34 -1 66.68 -1 66 C-1.515625 65.773125 -2.03125 65.54625 -2.5625 65.3125 C-4.66098238 64.18254795 -6.31336636 63.00950551 -8.1875 61.5625 C-16.07332513 55.92738606 -24.47496297 54.99975745 -34 56 C-44.28031799 58.27848737 -52.59827043 64.08410857 -58.59375 72.7109375 C-65.9553621 84.69400608 -69.537699 95.93557501 -69.375 110 C-69.38660156 111.00289062 -69.39820313 112.00578125 -69.41015625 113.0390625 C-69.37055749 123.25554257 -66.82284837 132.08205768 -62.3125 141.1875 C-61.99216797 141.85330078 -61.67183594 142.51910156 -61.34179688 143.20507812 C-60.56945796 144.80739318 -59.7859883 146.40433609 -59 148 C-61.18607548 147.39076585 -63.36739521 146.76210209 -65.53125 146.078125 C-67.43105775 145.48764421 -69.33583404 144.91023121 -71.2578125 144.39648438 C-86.3570948 140.33405842 -86.3570948 140.33405842 -90.265625 134.78125 C-91.56615361 131.17737555 -92.37894843 127.77700751 -93 124 C-93.22042969 123.09507812 -93.44085937 122.19015625 -93.66796875 121.2578125 C-98.04462315 102.8699893 -97.38685699 82.26490457 -93 64 C-92.80664062 63.00613281 -92.61328125 62.01226563 -92.4140625 60.98828125 C-87.80916166 39.07014934 -74.38845116 17.58505592 -55.96484375 4.8203125 C-37.80910087 -6.32669169 -19.56503094 -8.37544133 0 0 Z " fill="#EAEDEF" transform="translate(1137,470)"/>
<path d="M0 0 C2.18487458 0.38926439 4.37188163 0.74377028 6.56445312 1.08642578 C26.19253152 4.37747909 48.91482536 9.73194873 62.39257812 25.42626953 C65.42916367 30.10853296 67.39257812 33.79606506 67.39257812 39.42626953 C66.10655779 41.12970936 64.76008287 42.78752418 63.39257812 44.42626953 C62.44868847 45.86734079 61.52739849 47.32334404 60.62304688 48.78955078 C60.12611328 49.59457031 59.62917969 50.39958984 59.1171875 51.22900391 C58.10086191 52.88844276 57.08778181 54.54987413 56.078125 56.21337891 C53.04657349 61.10990033 49.82838815 65.43643806 45.88330078 69.63842773 C44.3643188 71.46016128 43.48657899 73.12032827 42.58007812 75.30126953 C34.84828367 91.90188703 13.3111905 101.69338405 -2.93945312 107.66455078 C-18.51074621 112.11023475 -37.86862288 111.06804689 -52.42773438 104.07080078 C-59.0378533 100.39083905 -64.4064205 95.72777159 -68.60742188 89.42626953 C-68.8503418 87.38916016 -68.8503418 87.38916016 -68.83789062 85.08251953 C-68.83595703 84.24849609 -68.83402344 83.41447266 -68.83203125 82.55517578 C-68.81978516 81.68763672 -68.80753906 80.82009766 -68.79492188 79.92626953 C-68.79427734 79.05873047 -68.79363281 78.19119141 -68.79296875 77.29736328 C-68.7481147 70.84834801 -68.7481147 70.84834801 -67.60742188 67.42626953 C-67.5140397 65.55313289 -67.47747344 63.67672591 -67.48242188 61.80126953 C-67.47984375 60.81900391 -67.47726562 59.83673828 -67.47460938 58.82470703 C-67.33736222 56.47401942 -67.33736222 56.47401942 -68.60742188 55.42626953 C-68.74165859 53.7826155 -68.83906632 52.13591264 -68.91992188 50.48876953 C-69.79039056 40.58078779 -73.44212871 34.01992008 -79.90039062 26.55517578 C-81.60742188 24.42626953 -81.60742188 24.42626953 -82.60742188 21.42626953 C-83.26742188 20.76626953 -83.92742187 20.10626953 -84.60742188 19.42626953 C-68.0753525 2.25835133 -47.23343668 -1.72437402 -24.29882812 -2.57373047 C-16.0665416 -2.7090789 -8.08264146 -1.44644954 0 0 Z " fill="#455A63" transform="translate(1433.607421875,1319.57373046875)"/>
<path d="M0 0 C2.03447876 1.44226415 3.86984492 2.97975649 5.72265625 4.6484375 C6.43808594 5.26074219 7.15351562 5.87304688 7.890625 6.50390625 C25.07282994 22.26658307 32.83764705 47.45609895 33.83276367 70.16064453 C33.89162269 72.69928104 33.91254957 75.23412882 33.91015625 77.7734375 C33.90935059 78.67852051 33.90854492 79.58360352 33.90771484 80.51611328 C33.834588 88.65900198 33.19513041 96.63163376 31.72265625 104.6484375 C31.50029297 106.48148438 31.50029297 106.48148438 31.2734375 108.3515625 C29.504561 112.11209592 28.94842769 112.35377006 25.2578125 113.828125 C23.44278437 114.42208599 21.6178057 114.98630368 19.78515625 115.5234375 C18.86541016 115.81734375 17.94566406 116.11125 16.99804688 116.4140625 C14.5795261 117.18319091 12.15291227 117.91756255 9.72265625 118.6484375 C8.23765625 119.1434375 8.23765625 119.1434375 6.72265625 119.6484375 C7.72265625 112.6484375 7.72265625 112.6484375 8.23828125 109.58984375 C10.95615281 87.47425983 7.33477783 67.72303436 -5 49.0390625 C-9.53737812 43.33247819 -15.46038098 39.62140018 -22.63671875 38.171875 C-28.62997558 37.77921335 -32.73296109 39.8714177 -37.27734375 43.6484375 C-47.50477709 54.1083125 -49.54917532 67.73186467 -49.58984375 81.8359375 C-49.50991086 88.94335906 -49.18956522 95.76643209 -47.27734375 102.6484375 C-46.94734375 103.83824219 -46.61734375 105.02804687 -46.27734375 106.25390625 C-42.74207009 118.18131079 -37.49903795 128.17602657 -27.27734375 135.6484375 C-26.61734375 135.9784375 -25.95734375 136.3084375 -25.27734375 136.6484375 C-26.59950486 140.61492083 -28.52789187 141.53685855 -31.90234375 143.9609375 C-35.52318491 146.57682364 -39.00588414 149.22340856 -42.27734375 152.2734375 C-45.27734375 154.6484375 -45.27734375 154.6484375 -47.23046875 154.5 C-57.86443137 150.07594685 -64.12796052 135.54493192 -68.52734375 125.7734375 C-80.23637635 97.0417624 -80.98100003 64.00430568 -69.73828125 35.01171875 C-62.23383578 17.73544188 -52.02647764 2.76493489 -33.96484375 -4.7890625 C-21.90668847 -8.68973158 -10.75884915 -6.3851832 0 0 Z " fill="#EAEDEF" transform="translate(943.27734375,488.3515625)"/>
<path d="M0 0 C2.84262093 2.1815463 5.2463014 4.4382115 7.6875 7.0625 C8.16058594 7.53042969 8.63367187 7.99835937 9.12109375 8.48046875 C19.61523892 19.51976432 23.17878068 35.45501042 22.97094727 50.2565918 C22.44060571 66.85328067 17.30113823 82.05684934 5.67578125 94.15625 C-0.07415667 99.48821601 -6.36108845 103.46952114 -14.3125 104.0625 C-17.22589476 103.29479662 -19.89638842 102.08455531 -22.6328125 100.8359375 C-23.41389374 100.4912442 -24.19497498 100.1465509 -24.99972534 99.79141235 C-26.64523898 99.06061912 -28.28738201 98.32219457 -29.92626953 97.57666016 C-32.4274183 96.44207332 -34.94072252 95.33876661 -37.45703125 94.23828125 C-39.05811304 93.52266821 -40.6584021 92.80527837 -42.2578125 92.0859375 C-43.00580109 91.7586264 -43.75378967 91.43131531 -44.52444458 91.09408569 C-51.38166599 87.93305585 -54.28917568 83.63661659 -57.4375 76.8125 C-57.93507813 75.75546875 -58.43265625 74.6984375 -58.9453125 73.609375 C-64.8239498 58.35851022 -64.86340247 38.07740034 -58.3125 23.0625 C-51.92903424 9.85923032 -43.65763191 0.3567057 -30 -5.3125 C-18.57032707 -7.2497327 -9.93433515 -5.81064886 0 0 Z " fill="#222221" transform="translate(1129.3125,530.9375)"/>
<path d="M0 0 C0.680625 0.495 1.36125 0.99 2.0625 1.5 C1.37875794 6.8867787 -0.71118097 8.70832989 -4.7421875 12.1171875 C-16.36498737 20.78455659 -29.09452575 27.98926791 -41.95922852 34.63110352 C-48.49352954 38.01355603 -54.80903357 41.58554182 -61 45.5625 C-67.4315541 49.6822949 -74.01269716 53.17822937 -80.8828125 56.50390625 C-84.35820559 58.19121043 -87.75102784 60.00346554 -91.1418457 61.85375977 C-104.14402477 68.92327114 -117.63285559 74.51056869 -131.625 79.3125 C-132.41874023 79.5904541 -133.21248047 79.8684082 -134.03027344 80.15478516 C-149.58432255 85.31330407 -164.69723946 86.05929936 -180.96459961 86.0559082 C-184.49767157 86.06249566 -188.02796587 86.11722646 -191.56054688 86.17382812 C-204.45699228 86.26971016 -214.42296176 85.51140103 -225.9375 79.5 C-227.42096433 78.88162676 -228.91079992 78.27799548 -230.41015625 77.69921875 C-245.00390164 71.55364806 -256.65291476 63.68742067 -267.9375 52.5 C-268.84967285 51.59620605 -269.7618457 50.69241211 -270.70166016 49.76123047 C-277.47695829 43.03729068 -284.21566877 36.27736237 -290.9375 29.5 C-290.4425 28.015 -290.4425 28.015 -289.9375 26.5 C-285.03535104 26.12181384 -282.75133167 26.82287171 -278.875 29.8125 C-277.92625 30.53824219 -276.9775 31.26398437 -276 32.01171875 C-272.74035134 34.66018328 -269.55542754 37.38268781 -266.375 40.125 C-254.07484998 50.69953773 -239.02694302 57.74854358 -223.9375 63.5 C-223.04820801 63.85819824 -222.15891602 64.21639648 -221.24267578 64.58544922 C-209.88049879 68.51286292 -198.35910701 68.06975507 -186.46923828 67.96655273 C-182.81366744 67.93750928 -179.15954406 67.94599331 -175.50390625 67.95898438 C-173.14582639 67.95274755 -170.78775104 67.94435706 -168.4296875 67.93359375 C-167.3543576 67.93652939 -166.27902771 67.93946503 -165.17111206 67.94248962 C-152.92492489 67.79241351 -142.06423698 64.05411581 -130.6875 59.8125 C-129.58792969 59.41611328 -128.48835938 59.01972656 -127.35546875 58.61132812 C-118.90481494 55.4827257 -110.98039617 51.6395685 -102.97790527 47.53567505 C-99.64747153 45.84520347 -96.28343843 44.22505814 -92.921875 42.59765625 C-77.7846759 35.21850199 -63.12739768 27.4643567 -48.83251953 18.55859375 C-41.38257993 13.93127511 -33.84345903 9.60974561 -26.0625 5.5625 C-25.12317627 5.07225342 -24.18385254 4.58200684 -23.21606445 4.0769043 C-7.63466493 -3.8985523 -7.63466493 -3.8985523 0 0 Z " fill="#654803" transform="translate(1155.9375,669.5)"/>
<path d="M0 0 C12.7980316 7.16056791 19.17493796 21.66190791 23.4375 35.125 C26.60316313 48.29191743 26.17210903 62.95860693 22.9375 76.0625 C22.751875 76.99320313 22.56625 77.92390625 22.375 78.8828125 C19.90581712 82.62684524 15.89806282 84.0402154 11.9375 85.9375 C5.40769605 89.17980116 -0.43962044 92.39544915 -6.0546875 97.078125 C-8.0625 98.0625 -8.0625 98.0625 -10.578125 97.41796875 C-23.45679909 90.39139657 -28.68464565 77.70688342 -32.8984375 64.39453125 C-37.74118037 47.56450511 -36.97215783 25.69728817 -28.51171875 10.25 C-21.62531933 -0.14456516 -11.93181536 -5.29691957 0 0 Z " fill="#222222" transform="translate(928.0625,527.9375)"/>
<path d="M0 0 C2.78983428 1.00453926 3.85977444 1.85977444 6 4 C6 4.99 6 5.98 6 7 C6.61875 7.28875 7.2375 7.5775 7.875 7.875 C10 9 10 9 12 11 C12.1875 14.5625 12.1875 14.5625 12 18 C11 19 11 19 8.67578125 19.234375 C5.55672754 18.96117322 4.54097445 18.25169195 2.1875 16.25 C-0.51649088 14.07150168 -3.03092232 12.38476109 -6.1875 10.9375 C-9.84682405 9.2052756 -12.40286597 7.1652571 -15 4 C-15 3.01 -15 2.02 -15 1 C-10.58724704 -1.20637648 -4.80296459 -0.43081137 0 0 Z " fill="#674A03" transform="translate(1035,629)"/>
<path d="M0 0 C2.125 1.25 2.125 1.25 2.9375 3.375 C2.999375 3.99375 3.06125 4.6125 3.125 5.25 C0.70070329 7.28640924 -1.24504727 8.38705455 -4.25 9.5 C-7.42836669 10.74694983 -8.88898518 12.29015362 -10.9375 15 C-12.39453125 16.85546875 -12.39453125 16.85546875 -13.875 18.25 C-17.125 18.3125 -17.125 18.3125 -19.875 17.25 C-20.535 16.59 -21.195 15.93 -21.875 15.25 C-21.875 9.96201127 -18.22624911 6.01709754 -14.875 2.25 C-10.20678453 -1.58033064 -5.71609818 -1.49115605 0 0 Z " fill="#694C03" transform="translate(973.875,627.75)"/>
<path d="M0 0 C3.7910119 1.44950455 7.3874638 3.15172566 11 5 C10.67 5.66 10.34 6.32 10 7 C5.61308455 6.49381745 3.15608721 3.86917019 0 1 C0 0.67 0 0.34 0 0 Z " fill="#C5C9CC" transform="translate(1334,983)"/>
</svg>
