<?xml version="1.0" encoding="UTF-8"?>
<svg version="1.1" xmlns="http://www.w3.org/2000/svg" width="600" height="600">
<path d="M0 0 C0.680625 0.845625 1.36125 1.69125 2.0625 2.5625 C2.59109619 3.21879395 3.11969238 3.87508789 3.66430664 4.55126953 C5.76479103 9.07499478 5.51053677 13.37409424 5.49609375 18.3046875 C5.5013356 19.3464212 5.50657745 20.38815491 5.51197815 21.4614563 C5.5183925 23.66195791 5.51706898 25.86249383 5.50854492 28.06298828 C5.50004705 31.41892027 5.52878653 34.77314283 5.56054688 38.12890625 C5.56215939 40.27083283 5.56158039 42.4127624 5.55859375 44.5546875 C5.56982773 45.55281464 5.58106171 46.55094177 5.59263611 47.57931519 C5.51487092 55.40751044 3.89707796 59.72792204 -1.75 65.375 C-8.42382305 69.95507464 -15.03237079 69.85417231 -22.875 69.87109375 C-25.00781534 69.89624468 -27.14062778 69.92164283 -29.2734375 69.94726562 C-32.61099551 69.97602073 -35.94850334 70.00006177 -39.28613281 70.01879883 C-42.52434339 70.04049818 -45.76198683 70.07992804 -49 70.12109375 C-49.99185303 70.12120956 -50.98370605 70.12132538 -52.00561523 70.1214447 C-59.15365548 70.22310671 -64.07049416 71.15160873 -69.6875 75.875 C-73.61198055 80.562574 -75.27669784 84.75618957 -75.66796875 90.8359375 C-75.78881836 92.56650391 -75.78881836 92.56650391 -75.91210938 94.33203125 C-75.98236328 95.52183594 -76.05261719 96.71164062 -76.125 97.9375 C-76.20685547 99.15050781 -76.28871094 100.36351562 -76.37304688 101.61328125 C-76.57266421 104.59579902 -76.76042274 107.57857328 -76.9375 110.5625 C-79.95931414 110.67117663 -82.97716327 110.75012754 -86 110.8125 C-86.84755859 110.84601563 -87.69511719 110.87953125 -88.56835938 110.9140625 C-95.48756343 111.02092279 -99.57065665 109.61746734 -104.79296875 104.87890625 C-110.94928939 96.77278317 -113.51831561 86.6411508 -113.9375 76.5625 C-113.97746094 75.79808594 -114.01742187 75.03367187 -114.05859375 74.24609375 C-114.37562986 62.62765271 -112.83986168 49.70447215 -105.625 40.1875 C-99.8453584 34.54226867 -94.15754536 32.43158686 -86.15917969 32.44897461 C-84.9982782 32.44905014 -83.83737671 32.44912567 -82.64129639 32.44920349 C-81.39326233 32.45436478 -80.14522827 32.45952606 -78.859375 32.46484375 C-77.57766418 32.4662587 -76.29595337 32.46767365 -74.97540283 32.46913147 C-71.5756636 32.47294099 -68.1759674 32.48275786 -64.77624512 32.49383545 C-61.303961 32.50408326 -57.8316699 32.5086363 -54.359375 32.51367188 C-47.55206571 32.52438159 -40.74478492 32.54143916 -33.9375 32.5625 C-33.9375 31.2425 -33.9375 29.9225 -33.9375 28.5625 C-46.4775 28.5625 -59.0175 28.5625 -71.9375 28.5625 C-72.06125 24.746875 -72.185 20.93125 -72.3125 17 C-72.36712402 15.81075928 -72.42174805 14.62151855 -72.47802734 13.39624023 C-72.55850043 8.25677917 -72.5495263 4.51766325 -69.203125 0.4296875 C-54.56127885 -13.70079444 -15.19862554 -12.61162545 0 0 Z M-60.9375 7.5625 C-62.18903259 9.90345531 -62.18903259 9.90345531 -61.9375 12.5625 C-60.59634601 15.57229883 -60.59634601 15.57229883 -57.9375 17.5625 C-54.30510187 17.7341367 -54.30510187 17.7341367 -50.9375 16.5625 C-48.64757316 13.74717943 -48.64757316 13.74717943 -49 10.5625 C-49.67377519 7.37968229 -49.67377519 7.37968229 -52.4375 5.6875 C-56.32882374 3.93640432 -57.46884086 5.04772212 -60.9375 7.5625 Z " fill="#3972A0" transform="translate(335.9375,244.4375)"/>
<path d="M0 0 C19.58739123 -0.80130237 19.58739123 -0.80130237 26.66015625 5.47265625 C35.66282296 14.82923615 36.22115094 26.75922649 36.3125 39 C36.35600586 40.89685547 36.35600586 40.89685547 36.40039062 42.83203125 C36.46793461 52.92206327 35.44946808 63.4291688 28.125 71.0625 C27.16980469 72.10083984 27.16980469 72.10083984 26.1953125 73.16015625 C21.6534244 76.96661407 17.60764277 78.37722599 11.71923828 78.34057617 C10.4984256 78.34034958 9.27761292 78.34012299 8.01980591 78.33988953 C6.71647308 78.32440567 5.41314026 78.30892181 4.0703125 78.29296875 C2.71125763 78.28736703 1.35219666 78.28309966 -0.00686646 78.28010559 C-3.56784055 78.26870194 -7.12844215 78.23927429 -10.68927002 78.20599365 C-14.32925377 78.17519543 -17.96929825 78.16157952 -21.609375 78.14648438 C-28.73973486 78.11439956 -35.86984299 78.06325826 -43 78 C-43 79.65 -43 81.3 -43 83 C-30.46 83 -17.92 83 -5 83 C-4.896875 86.83625 -4.79375 90.6725 -4.6875 94.625 C-4.64197998 95.82334473 -4.59645996 97.02168945 -4.54956055 98.25634766 C-4.43475613 107.07777115 -4.43475613 107.07777115 -7.1953125 110.6015625 C-18.9796947 120.67901469 -36.81951845 120.65867764 -51.57373047 119.7331543 C-61.94958829 118.84081678 -72.23616364 116.40759803 -79.3125 108.375 C-81.62856163 105.11535771 -82.12990725 103.43635859 -82.17700195 99.49365234 C-82.18983719 98.55862885 -82.20267242 97.62360535 -82.21589661 96.6602478 C-82.22328354 95.6457254 -82.23067047 94.631203 -82.23828125 93.5859375 C-82.246353 92.54233063 -82.25442474 91.49872375 -82.26274109 90.42349243 C-82.27659175 88.2092658 -82.2873095 85.99501773 -82.29516602 83.78076172 C-82.31232486 80.4094121 -82.35619663 77.03905678 -82.40039062 73.66796875 C-82.41052226 71.51563221 -82.41903689 69.36328732 -82.42578125 67.2109375 C-82.44328934 66.20856049 -82.46079742 65.20618347 -82.47883606 64.1734314 C-82.45968932 57.93027719 -81.58939903 53.20568387 -78 48 C-75.96484375 46.16015625 -75.96484375 46.16015625 -73.9375 45.0625 C-73.26589844 44.68222656 -72.59429687 44.30195313 -71.90234375 43.91015625 C-68.65813376 42.35799829 -66.05168731 41.87116128 -62.50366211 41.84228516 C-61.59519028 41.83202301 -60.68671844 41.82176086 -59.75071716 41.81118774 C-58.76950394 41.80388641 -57.78829071 41.79658508 -56.77734375 41.7890625 C-54.69074761 41.76097532 -52.60415918 41.73231075 -50.51757812 41.703125 C-47.23511118 41.6620177 -43.95278522 41.62512335 -40.67016602 41.59863281 C-37.49725685 41.57081921 -34.3249977 41.52492932 -31.15234375 41.4765625 C-30.18530014 41.47330963 -29.21825653 41.47005676 -28.22190857 41.46670532 C-20.4208189 41.32782153 -12.82529992 39.99343411 -6 36 C-4.80161791 33.67145537 -4.80161791 33.67145537 -4 31 C-3.66500488 30.2469458 -3.33000977 29.4938916 -2.98486328 28.71801758 C-1.88126045 25.67230357 -1.58987468 23.05318292 -1.3671875 19.82421875 C-1.24150391 18.08881836 -1.24150391 18.08881836 -1.11328125 16.31835938 C-1.03464844 15.12017578 -0.95601563 13.92199219 -0.875 12.6875 C-0.74544922 10.8612207 -0.74544922 10.8612207 -0.61328125 8.99804688 C-0.40159273 5.99912611 -0.19743202 2.99988748 0 0 Z M-26.9375 95.625 C-28.37504343 98.83833238 -28.01373739 100.66914856 -27 104 C-23.75846834 106.1610211 -22.76307099 106.64247553 -19 106 C-16.40878096 103.9901643 -16.40878096 103.9901643 -15 101 C-15.47509216 97.7401469 -15.47509216 97.7401469 -17 95 C-20.53889651 93.23055174 -23.84789679 93.03371989 -26.9375 95.625 Z " fill="#FED141" transform="translate(346,276)"/>
<path d="M0 0 C-1.45178562 3.38749978 -3.36940603 5.45161209 -6 8 C-6.66 8.99 -7.32 9.98 -8 11 C-7.71915428 6.97454466 -7.21634296 5.25517374 -4.5625 2.125 C-2 0 -2 0 0 0 Z " fill="#5F878D" transform="translate(272,242)"/>
</svg>
